<?xml version="1.0" encoding="UTF-8" standalone="no"?>
<!-- Created with Inkscape (http://www.inkscape.org/) -->
<svg
   xmlns:dc="http://purl.org/dc/elements/1.1/"
   xmlns:cc="http://creativecommons.org/ns#"
   xmlns:rdf="http://www.w3.org/1999/02/22-rdf-syntax-ns#"
   xmlns:svg="http://www.w3.org/2000/svg"
   xmlns="http://www.w3.org/2000/svg"
   xmlns:xlink="http://www.w3.org/1999/xlink"
   xmlns:sodipodi="http://sodipodi.sourceforge.net/DTD/sodipodi-0.dtd"
   xmlns:inkscape="http://www.inkscape.org/namespaces/inkscape"
   width="600"
   height="312"
   id="svg3874"
   version="1.1"
   inkscape:version="0.91 r13725"
   sodipodi:docname="Persona.svg">
  <defs
     id="defs3876">
    <linearGradient
       inkscape:collect="always"
       id="linearGradient3059">
      <stop
         style="stop-color:#87aade;stop-opacity:1"
         offset="0"
         id="stop3061" />
      <stop
         style="stop-color:#87aade;stop-opacity:0"
         offset="1"
         id="stop3063" />
    </linearGradient>
    <linearGradient
       inkscape:collect="always"
       xlink:href="#linearGradient3059"
       id="linearGradient3065"
       x1="286"
       y1="1114.3622"
       x2="286"
       y2="1149.3765"
       gradientUnits="userSpaceOnUse"
       gradientTransform="translate(0,340)" />
    <linearGradient
       inkscape:collect="always"
       xlink:href="#linearGradient3059"
       id="linearGradient3069"
       gradientUnits="userSpaceOnUse"
       x1="286"
       y1="1114.3622"
       x2="286"
       y2="1149.3765"
       gradientTransform="translate(100,340)" />
    <linearGradient
       gradientTransform="translate(0,340)"
       gradientUnits="userSpaceOnUse"
       y2="1149.3765"
       x2="286"
       y1="1114.3622"
       x1="286"
       id="linearGradient4381"
       xlink:href="#linearGradient3059"
       inkscape:collect="always" />
    <linearGradient
       gradientTransform="translate(100,340)"
       y2="1149.3765"
       x2="286"
       y1="1114.3622"
       x1="286"
       gradientUnits="userSpaceOnUse"
       id="linearGradient4383"
       xlink:href="#linearGradient3059"
       inkscape:collect="always" />
    <linearGradient
       gradientTransform="translate(0,340)"
       gradientUnits="userSpaceOnUse"
       y2="1149.3765"
       x2="286"
       y1="1114.3622"
       x1="286"
       id="linearGradient4750"
       xlink:href="#linearGradient3059"
       inkscape:collect="always" />
    <linearGradient
       gradientTransform="translate(100,340)"
       y2="1149.3765"
       x2="286"
       y1="1114.3622"
       x1="286"
       gradientUnits="userSpaceOnUse"
       id="linearGradient4752"
       xlink:href="#linearGradient3059"
       inkscape:collect="always" />
  </defs>
  <sodipodi:namedview
     id="base"
     pagecolor="#ffffff"
     bordercolor="#666666"
     borderopacity="1.0"
     inkscape:pageopacity="0.0"
     inkscape:pageshadow="2"
     inkscape:zoom="1"
     inkscape:cx="49.000112"
     inkscape:cy="-47.500011"
     inkscape:document-units="px"
     inkscape:current-layer="layer1"
     showgrid="false"
     inkscape:window-width="3759"
     inkscape:window-height="2131"
     inkscape:window-x="81"
     inkscape:window-y="0"
     inkscape:window-maximized="1"
     fit-margin-top="0"
     fit-margin-left="0"
     fit-margin-right="0"
     fit-margin-bottom="0"
     showguides="true"
     inkscape:guide-bbox="true" />
  <metadata
     id="metadata3879">
    <rdf:RDF>
      <cc:Work
         rdf:about="">
        <dc:format>image/svg+xml</dc:format>
        <dc:type
           rdf:resource="http://purl.org/dc/dcmitype/StillImage" />
        <dc:title></dc:title>
      </cc:Work>
    </rdf:RDF>
  </metadata>
  <g
     inkscape:label="Layer 1"
     inkscape:groupmode="layer"
     id="layer1"
     transform="translate(0,-740.36218)">
    <rect
       style="fill:#ffffff"
       id="rect3070"
       width="150"
       height="100"
       x="20"
       y="760.36218"
       rx="5" />
    <text
       xml:space="preserve"
       style="-inkscape-font-specification:'Source Sans Pro Bold';fill:#000000;font-family:'Source Sans Pro';font-size:15px;font-weight:bold;text-align:start;text-anchor:start"
       x="30"
       y="786"
       id="text3094"
       sodipodi:linespacing="100%"><tspan
         sodipodi:role="line"
         x="30"
         y="786"
         id="tspan3872">Your persona</tspan></text>
    <g
       transform="matrix(0.25434441,0,0,0.25434441,971.5181,829.96064)"
       id="g4577" />
    <g
       id="g4726"
       transform="matrix(0.28203731,0,0,0.28203731,1105.6665,630.58744)" />
    <text
       xml:space="preserve"
       style="-inkscape-font-specification:'Source Sans Pro';fill:#000000;font-family:'Source Sans Pro';font-size:15px"
       x="54"
       y="846"
       id="text8116"
       sodipodi:linespacing="125%"><tspan
         sodipodi:role="line"
         id="tspan8118"
         x="54"
         y="846">Public key</tspan></text>
    <text
       sodipodi:linespacing="125%"
       id="text8120"
       y="816"
       x="54"
       style="-inkscape-font-specification:'Source Sans Pro';fill:#000000;font-family:'Source Sans Pro';font-size:15px"
       xml:space="preserve"><tspan
         y="816"
         x="54"
         id="tspan8122"
         sodipodi:role="line">Private key</tspan></text>
    <rect
       rx="5"
       y="920.36218"
       x="20"
       height="40"
       width="150"
       id="rect8266"
       style="fill:#ffffff" />
    <g
       id="g8288"
       transform="translate(-10.000224,-739.00022)">
      <rect
         style="fill:#d9caf0"
         id="rect8286"
         width="20"
         height="20"
         x="40.000225"
         y="1569.3623"
         rx="2" />
      <path
         inkscape:connector-curvature="0"
         id="rect8272"
         d="m 42.000224,1569.3622 c -1.108,0 -2,0.892 -2,2 l 0,2.5758 c 0.712363,0.4719 1.3342,1.0804 1.803711,1.7865 l 0.282422,0.4246 6.534179,0 6.534376,0 1.181835,1.199 c 0.650086,0.6595 1.210205,1.2727 1.244532,1.3629 0.135593,0.3567 0.05596,0.4637 -1.486524,2.001 l -1.471875,1.467 -0.792187,-0.7904 -0.791992,-0.7905 -0.795704,0.7957 -0.795703,0.7957 -0.777539,-0.7757 -0.777539,-0.776 -0.199609,0.1803 c -0.10978,0.099 -0.45149,0.4311 -0.759375,0.7377 -0.307893,0.3065 -0.569932,0.5477 -0.582227,0.5359 -0.01228,-0.012 -0.360006,-0.3526 -0.772656,-0.7576 -0.412651,-0.405 -0.773177,-0.7365 -0.801172,-0.7365 -0.02802,0 -0.49662,0.4464 -1.041406,0.9919 l -0.990625,0.992 -1.293164,0 c -0.711237,0 -1.322268,0.021 -1.357813,0.045 -0.0355,0.024 -0.17997,0.2153 -0.320898,0.4244 -0.465632,0.6908 -1.07391,1.2842 -1.773047,1.7474 l 0,2.5641 c 0,1.108 0.892,2 2,2 l 16,0 c 1.108,0 2,-0.892 2,-2 l 0,-16 c 0,-1.108 -0.892,-2 -2,-2 l -16,0 z"
         style="fill:#7137c8" />
    </g>
    <path
       style="fill:#ffcc00"
       d="m 33.967553,806.3622 c -1.80161,0 -3.492484,0.98261 -4.374925,2.62585 -1.167767,2.17466 -0.563609,4.91896 1.406279,6.38776 0.638473,0.47603 1.345869,0.78339 2.162075,0.93922 l 0,0 c 0.412214,0.0788 1.352403,0.0554 1.815498,-0.0446 1.250689,-0.27074 2.375613,-1.02729 3.078912,-2.07074 0.108397,-0.16083 0.219516,-0.30798 0.246824,-0.32644 0.02734,-0.0185 0.497323,-0.0346 1.044382,-0.0346 l 0.994656,0 0.761953,-0.76301 c 0.419031,-0.41958 0.77946,-0.76293 0.801013,-0.76293 0.02153,0 0.298837,0.25497 0.616233,0.56649 0.317396,0.31151 0.584858,0.57348 0.5943,0.58271 0.0095,0.009 0.211008,-0.17644 0.447828,-0.41219 0.236815,-0.23583 0.499646,-0.4915 0.584085,-0.56741 l 0.153532,-0.13868 0.598056,0.59687 0.598055,0.59664 0.612027,-0.61203 0.612027,-0.61202 0.609172,0.60803 0.609323,0.60794 1.132114,-1.12836 c 1.186421,-1.18244 1.247675,-1.26474 1.143382,-1.5391 -0.02641,-0.0692 -0.457227,-0.54103 -0.957251,-1.04829 l -0.909025,-0.92223 -5.026011,0 -5.02586,0 -0.217229,-0.32659 c -0.705185,-1.06052 -1.855293,-1.83769 -3.103549,-2.0972 -0.336789,-0.07 -0.674245,-0.10407 -1.007876,-0.10438 z m -2.188363,3.46124 a 1.5383293,1.5383293 0 0 1 1.538329,1.53833 1.5383293,1.5383293 0 0 1 -1.538329,1.53833 1.5383293,1.5383293 0 0 1 -1.53833,-1.53833 1.5383293,1.5383293 0 0 1 1.53833,-1.53833 z"
       id="path8278"
       inkscape:connector-curvature="0" />
    <text
       sodipodi:linespacing="125%"
       id="text8298"
       y="946"
       x="54"
       style="-inkscape-font-specification:'Source Sans Pro Bold';fill:#000000;font-family:'Source Sans Pro';font-size:15px;font-weight:bold"
       xml:space="preserve"><tspan
         y="946"
         x="54"
         id="tspan8300"
         sodipodi:role="line"
         >Peer 3</tspan></text>
    <g
       transform="translate(-10.000224,-639.00022)"
       id="g8302">
      <rect
         rx="2"
         y="1569.3623"
         x="40.000225"
         height="20"
         width="20"
         id="rect8304"
         style="fill:#d9caf0" />
      <path
         style="fill:#7137c8"
         d="m 42.000224,1569.3622 c -1.108,0 -2,0.892 -2,2 l 0,2.5758 c 0.712363,0.4719 1.3342,1.0804 1.803711,1.7865 l 0.282422,0.4246 6.534179,0 6.534376,0 1.181835,1.199 c 0.650086,0.6595 1.210205,1.2727 1.244532,1.3629 0.135593,0.3567 0.05596,0.4637 -1.486524,2.001 l -1.471875,1.467 -0.792187,-0.7904 -0.791992,-0.7905 -0.795704,0.7957 -0.795703,0.7957 -0.777539,-0.7757 -0.777539,-0.776 -0.199609,0.1803 c -0.10978,0.099 -0.45149,0.4311 -0.759375,0.7377 -0.307893,0.3065 -0.569932,0.5477 -0.582227,0.5359 -0.01228,-0.012 -0.360006,-0.3526 -0.772656,-0.7576 -0.412651,-0.405 -0.773177,-0.7365 -0.801172,-0.7365 -0.02802,0 -0.49662,0.4464 -1.041406,0.9919 l -0.990625,0.992 -1.293164,0 c -0.711237,0 -1.322268,0.021 -1.357813,0.045 -0.0355,0.024 -0.17997,0.2153 -0.320898,0.4244 -0.465632,0.6908 -1.07391,1.2842 -1.773047,1.7474 l 0,2.5641 c 0,1.108 0.892,2 2,2 l 16,0 c 1.108,0 2,-0.892 2,-2 l 0,-16 c 0,-1.108 -0.892,-2 -2,-2 l -16,0 z"
         id="path8306"
         inkscape:connector-curvature="0" />
    </g>
    <rect
       style="fill:#ffffff"
       id="rect8308"
       width="150"
       height="40"
       x="20"
       y="970.36218"
       rx="5" />
    <text
       xml:space="preserve"
       style="-inkscape-font-specification:'Source Sans Pro Bold';fill:#000000;font-family:'Source Sans Pro';font-size:15px;font-weight:bold"
       x="78"
       y="996"
       id="text8310"
       sodipodi:linespacing="125%"><tspan
         sodipodi:role="line"
         id="tspan8312"
         x="78"
         y="996">Peer 4</tspan></text>
    <g
       id="g8314"
       transform="translate(-10.000224,-589.00022)">
      <rect
         style="fill:#d9caf0"
         id="rect8316"
         width="20"
         height="20"
         x="40.000225"
         y="1569.3623"
         rx="2" />
      <path
         inkscape:connector-curvature="0"
         id="path8318"
         d="m 42.000224,1569.3622 c -1.108,0 -2,0.892 -2,2 l 0,2.5758 c 0.712363,0.4719 1.3342,1.0804 1.803711,1.7865 l 0.282422,0.4246 6.534179,0 6.534376,0 1.181835,1.199 c 0.650086,0.6595 1.210205,1.2727 1.244532,1.3629 0.135593,0.3567 0.05596,0.4637 -1.486524,2.001 l -1.471875,1.467 -0.792187,-0.7904 -0.791992,-0.7905 -0.795704,0.7957 -0.795703,0.7957 -0.777539,-0.7757 -0.777539,-0.776 -0.199609,0.1803 c -0.10978,0.099 -0.45149,0.4311 -0.759375,0.7377 -0.307893,0.3065 -0.569932,0.5477 -0.582227,0.5359 -0.01228,-0.012 -0.360006,-0.3526 -0.772656,-0.7576 -0.412651,-0.405 -0.773177,-0.7365 -0.801172,-0.7365 -0.02802,0 -0.49662,0.4464 -1.041406,0.9919 l -0.990625,0.992 -1.293164,0 c -0.711237,0 -1.322268,0.021 -1.357813,0.045 -0.0355,0.024 -0.17997,0.2153 -0.320898,0.4244 -0.465632,0.6908 -1.07391,1.2842 -1.773047,1.7474 l 0,2.5641 c 0,1.108 0.892,2 2,2 l 16,0 c 1.108,0 2,-0.892 2,-2 l 0,-16 c 0,-1.108 -0.892,-2 -2,-2 l -16,0 z"
         style="fill:#7137c8" />
    </g>
    <rect
       style="fill:#ffffff"
       id="rect8320"
       width="150"
       height="40"
       x="430"
       y="800.36218"
       rx="5" />
    <text
       xml:space="preserve"
       style="-inkscape-font-specification:'Source Sans Pro Bold';fill:#000000;font-family:'Source Sans Pro';font-size:15px;font-weight:bold"
       x="464"
       y="826"
       id="text8322"
       sodipodi:linespacing="125%"><tspan
         sodipodi:role="line"
         id="tspan8324"
         x="464"
         y="826">Peer 1</tspan></text>
    <g
       id="g8326"
       transform="translate(399.99978,-759.00022)">
      <rect
         style="fill:#d9caf0"
         id="rect8328"
         width="20"
         height="20"
         x="40.000225"
         y="1569.3623"
         rx="2" />
      <path
         inkscape:connector-curvature="0"
         id="path8330"
         d="m 42.000224,1569.3622 c -1.108,0 -2,0.892 -2,2 l 0,2.5758 c 0.712363,0.4719 1.3342,1.0804 1.803711,1.7865 l 0.282422,0.4246 6.534179,0 6.534376,0 1.181835,1.199 c 0.650086,0.6595 1.210205,1.2727 1.244532,1.3629 0.135593,0.3567 0.05596,0.4637 -1.486524,2.001 l -1.471875,1.467 -0.792187,-0.7904 -0.791992,-0.7905 -0.795704,0.7957 -0.795703,0.7957 -0.777539,-0.7757 -0.777539,-0.776 -0.199609,0.1803 c -0.10978,0.099 -0.45149,0.4311 -0.759375,0.7377 -0.307893,0.3065 -0.569932,0.5477 -0.582227,0.5359 -0.01228,-0.012 -0.360006,-0.3526 -0.772656,-0.7576 -0.412651,-0.405 -0.773177,-0.7365 -0.801172,-0.7365 -0.02802,0 -0.49662,0.4464 -1.041406,0.9919 l -0.990625,0.992 -1.293164,0 c -0.711237,0 -1.322268,0.021 -1.357813,0.045 -0.0355,0.024 -0.17997,0.2153 -0.320898,0.4244 -0.465632,0.6908 -1.07391,1.2842 -1.773047,1.7474 l 0,2.5641 c 0,1.108 0.892,2 2,2 l 16,0 c 1.108,0 2,-0.892 2,-2 l 0,-16 c 0,-1.108 -0.892,-2 -2,-2 l -16,0 z"
         style="fill:#7137c8" />
    </g>
    <rect
       rx="5"
       y="850.36218"
       x="430"
       height="40"
       width="150"
       id="rect8332"
       style="fill:#ffffff" />
    <text
       sodipodi:linespacing="125%"
       id="text8334"
       y="876"
       x="464"
       style="-inkscape-font-specification:'Source Sans Pro Bold';fill:#000000;font-family:'Source Sans Pro';font-size:15px;font-weight:bold"
       xml:space="preserve"><tspan
         y="876"
         x="464"
         id="tspan8336"
         sodipodi:role="line"
         >Peer 2</tspan></text>
    <g
       transform="translate(399.99978,-709.00022)"
       id="g8338">
      <rect
         rx="2"
         y="1569.3623"
         x="40.000225"
         height="20"
         width="20"
         id="rect8340"
         style="fill:#d9caf0" />
      <path
         style="fill:#7137c8"
         d="m 42.000224,1569.3622 c -1.108,0 -2,0.892 -2,2 l 0,2.5758 c 0.712363,0.4719 1.3342,1.0804 1.803711,1.7865 l 0.282422,0.4246 6.534179,0 6.534376,0 1.181835,1.199 c 0.650086,0.6595 1.210205,1.2727 1.244532,1.3629 0.135593,0.3567 0.05596,0.4637 -1.486524,2.001 l -1.471875,1.467 -0.792187,-0.7904 -0.791992,-0.7905 -0.795704,0.7957 -0.795703,0.7957 -0.777539,-0.7757 -0.777539,-0.776 -0.199609,0.1803 c -0.10978,0.099 -0.45149,0.4311 -0.759375,0.7377 -0.307893,0.3065 -0.569932,0.5477 -0.582227,0.5359 -0.01228,-0.012 -0.360006,-0.3526 -0.772656,-0.7576 -0.412651,-0.405 -0.773177,-0.7365 -0.801172,-0.7365 -0.02802,0 -0.49662,0.4464 -1.041406,0.9919 l -0.990625,0.992 -1.293164,0 c -0.711237,0 -1.322268,0.021 -1.357813,0.045 -0.0355,0.024 -0.17997,0.2153 -0.320898,0.4244 -0.465632,0.6908 -1.07391,1.2842 -1.773047,1.7474 l 0,2.5641 c 0,1.108 0.892,2 2,2 l 16,0 c 1.108,0 2,-0.892 2,-2 l 0,-16 c 0,-1.108 -0.892,-2 -2,-2 l -16,0 z"
         id="path8342"
         inkscape:connector-curvature="0" />
    </g>
    <g
       id="g8344"
       transform="translate(13.99978,-589.00022)">
      <rect
         style="fill:#d9caf0"
         id="rect8346"
         width="20"
         height="20"
         x="40.000225"
         y="1569.3623"
         rx="2" />
      <path
         inkscape:connector-curvature="0"
         id="path8348"
         d="m 42.000224,1569.3622 c -1.108,0 -2,0.892 -2,2 l 0,2.5758 c 0.712363,0.4719 1.3342,1.0804 1.803711,1.7865 l 0.282422,0.4246 6.534179,0 6.534376,0 1.181835,1.199 c 0.650086,0.6595 1.210205,1.2727 1.244532,1.3629 0.135593,0.3567 0.05596,0.4637 -1.486524,2.001 l -1.471875,1.467 -0.792187,-0.7904 -0.791992,-0.7905 -0.795704,0.7957 -0.795703,0.7957 -0.777539,-0.7757 -0.777539,-0.776 -0.199609,0.1803 c -0.10978,0.099 -0.45149,0.4311 -0.759375,0.7377 -0.307893,0.3065 -0.569932,0.5477 -0.582227,0.5359 -0.01228,-0.012 -0.360006,-0.3526 -0.772656,-0.7576 -0.412651,-0.405 -0.773177,-0.7365 -0.801172,-0.7365 -0.02802,0 -0.49662,0.4464 -1.041406,0.9919 l -0.990625,0.992 -1.293164,0 c -0.711237,0 -1.322268,0.021 -1.357813,0.045 -0.0355,0.024 -0.17997,0.2153 -0.320898,0.4244 -0.465632,0.6908 -1.07391,1.2842 -1.773047,1.7474 l 0,2.5641 c 0,1.108 0.892,2 2,2 l 16,0 c 1.108,0 2,-0.892 2,-2 l 0,-16 c 0,-1.108 -0.892,-2 -2,-2 l -16,0 z"
         style="fill:#7137c8" />
    </g>
    <path
       style="fill:none;fill-rule:evenodd;stroke:#808080;stroke-dasharray:none;stroke-linecap:butt;stroke-miterlimit:4;stroke-width:1"
       d="m 164,810.86218 29,0"
       id="path9392"
       inkscape:connector-curvature="0"
       sodipodi:nodetypes="cc" />
    <rect
       y="761.36218"
       x="185"
       height="130"
       width="230"
       id="rect3024"
       style="fill:none;stroke:#000000;stroke-dasharray:4, 4;stroke-dashoffset:0;stroke-miterlimit:4;stroke-width:2"
       rx="10" />
    <rect
       style="fill:#87aade"
       id="rect9382"
       width="30"
       height="15"
       x="198"
       y="803.36218" />
    <rect
       y="803.36218"
       x="230"
       height="15"
       width="30"
       id="rect9384"
       style="fill:#87aade" />
    <rect
       style="fill:#87aade"
       id="rect9386"
       width="30"
       height="15"
       x="262"
       y="803.36218" />
    <text
       xml:space="preserve"
       style="-inkscape-font-specification:'Source Sans Pro';fill:#000000;font-family:'Source Sans Pro';font-size:15px"
       x="298"
       y="816"
       id="text9388"
       sodipodi:linespacing="125%"><tspan
         sodipodi:role="line"
         id="tspan9390"
         x="298"
         y="816">Your account</tspan></text>
    <text
       sodipodi:linespacing="100%"
       id="text9394"
       y="786"
       x="198"
       style="-inkscape-font-specification:'Source Sans Pro Bold';fill:#000000;font-family:'Source Sans Pro';font-size:15px;font-weight:bold;text-align:start;text-anchor:start"
       xml:space="preserve"><tspan
         id="tspan9396"
         y="786"
         x="198"
         sodipodi:role="line">Store A</tspan></text>
    <rect
       y="843.36218"
       x="198"
       height="15"
       width="30"
       id="rect9398"
       style="fill:#87aade" />
    <rect
       style="fill:#87aade"
       id="rect9400"
       width="30"
       height="15"
       x="230"
       y="843.36218" />
    <rect
       y="843.36218"
       x="262"
       height="15"
       width="30"
       id="rect9402"
       style="fill:#87aade" />
    <rect
       style="fill:#87aade"
       id="rect9404"
       width="30"
       height="15"
       x="198"
       y="863.36218" />
    <rect
       y="863.36218"
       x="230"
       height="15"
       width="30"
       id="rect9406"
       style="fill:#87aade" />
    <rect
       style="fill:#87aade"
       id="rect9408"
       width="30"
       height="15"
       x="262"
       y="863.36218" />
    <text
       sodipodi:linespacing="125%"
       id="text9410"
       y="856"
       x="298"
       style="-inkscape-font-specification:'Source Sans Pro';fill:#000000;font-family:'Source Sans Pro';font-size:15px"
       xml:space="preserve"><tspan
         y="856"
         x="298"
         id="tspan9412"
         sodipodi:role="line">Peer 1's account</tspan></text>
    <text
       xml:space="preserve"
       style="-inkscape-font-specification:'Source Sans Pro';fill:#000000;font-family:'Source Sans Pro';font-size:15px"
       x="298"
       y="876"
       id="text9414"
       sodipodi:linespacing="125%"><tspan
         sodipodi:role="line"
         id="tspan9416"
         x="298"
         y="876">Peer 2's account</tspan></text>
    <rect
       rx="10"
       style="fill:none;stroke:#000000;stroke-dasharray:4, 4;stroke-dashoffset:0;stroke-miterlimit:4;stroke-width:2"
       id="rect9418"
       width="230"
       height="110"
       x="185"
       y="921.36218" />
    <text
       xml:space="preserve"
       style="-inkscape-font-specification:'Source Sans Pro Bold';fill:#000000;font-family:'Source Sans Pro';font-size:15px;font-weight:bold;text-align:start;text-anchor:start"
       x="198"
       y="946"
       id="text9462"
       sodipodi:linespacing="100%"><tspan
         sodipodi:role="line"
         x="198"
         y="946"
         id="tspan9464">Store B</tspan></text>
    <rect
       style="fill:#87aade"
       id="rect9466"
       width="30"
       height="15"
       x="198"
       y="963.36218" />
    <rect
       y="963.36218"
       x="230"
       height="15"
       width="30"
       id="rect9468"
       style="fill:#87aade" />
    <rect
       style="fill:#87aade"
       id="rect9470"
       width="30"
       height="15"
       x="262"
       y="963.36218" />
    <rect
       y="983.36218"
       x="198"
       height="15"
       width="30"
       id="rect9472"
       style="fill:#87aade" />
    <rect
       style="fill:#87aade"
       id="rect9474"
       width="30"
       height="15"
       x="230"
       y="983.36218" />
    <rect
       y="983.36218"
       x="262"
       height="15"
       width="30"
       id="rect9476"
       style="fill:#87aade" />
    <text
       xml:space="preserve"
       style="-inkscape-font-specification:'Source Sans Pro';fill:#000000;font-family:'Source Sans Pro';font-size:15px"
       x="298"
       y="976"
       id="text9478"
       sodipodi:linespacing="125%"><tspan
         sodipodi:role="line"
         id="tspan9480"
         x="298"
         y="976">Peer 3's account</tspan></text>
    <text
       sodipodi:linespacing="125%"
       id="text9482"
       y="996"
       x="298"
       style="-inkscape-font-specification:'Source Sans Pro';fill:#000000;font-family:'Source Sans Pro';font-size:15px"
       xml:space="preserve"><tspan
         y="996"
         x="298"
         id="tspan9484"
         sodipodi:role="line">Peer 4's account</tspan></text>
    <path
       sodipodi:nodetypes="cccc"
       inkscape:connector-curvature="0"
       id="path9486"
       d="m 164,940.86218 13.5,0 0,30.00002 15.5,0"
       style="fill:none;fill-rule:evenodd;stroke:#808080;stroke-dasharray:none;stroke-linecap:butt;stroke-miterlimit:4;stroke-width:1" />
    <path
       style="fill:none;fill-rule:evenodd;stroke:#808080;stroke-dasharray:none;stroke-linecap:butt;stroke-miterlimit:4;stroke-width:1"
       d="m 408,850.86218 15.5,0 0,-30 13.5,0"
       id="path9488"
       inkscape:connector-curvature="0"
       sodipodi:nodetypes="cccc" />
    <path
       sodipodi:nodetypes="cc"
       inkscape:connector-curvature="0"
       id="path9490"
       d="m 408,870.86218 29,0"
       style="fill:none;fill-rule:evenodd;stroke:#808080;stroke-dasharray:none;stroke-linecap:butt;stroke-miterlimit:4;stroke-width:1" />
    <path
       style="fill:none;fill-rule:evenodd;stroke:#808080;stroke-dasharray:none;stroke-linecap:butt;stroke-miterlimit:4;stroke-width:1"
       d="m 164,990.8622 29,0"
       id="path9492"
       inkscape:connector-curvature="0"
       sodipodi:nodetypes="cc" />
    <rect
       style="fill:#87aade"
       id="rect9494"
       width="30"
       height="15"
       x="198"
       y="1003.3622" />
    <rect
       y="1003.3622"
       x="230"
       height="15"
       width="30"
       id="rect9496"
       style="fill:#87aade" />
    <rect
       style="fill:#87aade"
       id="rect9498"
       width="30"
       height="15"
       x="262"
       y="1003.3622" />
    <text
       xml:space="preserve"
       style="-inkscape-font-specification:'Source Sans Pro';fill:#000000;font-family:'Source Sans Pro';font-size:15px"
       x="298"
       y="1016"
       id="text9500"
       sodipodi:linespacing="125%"><tspan
         sodipodi:role="line"
         id="tspan9502"
         x="298"
         y="1016">Peer 4's account</tspan></text>
  </g>
</svg>
