<?xml version="1.0" encoding="UTF-8" standalone="no"?>
<!-- Created with Inkscape (http://www.inkscape.org/) -->
<svg
   xmlns:dc="http://purl.org/dc/elements/1.1/"
   xmlns:cc="http://creativecommons.org/ns#"
   xmlns:rdf="http://www.w3.org/1999/02/22-rdf-syntax-ns#"
   xmlns:svg="http://www.w3.org/2000/svg"
   xmlns="http://www.w3.org/2000/svg"
   xmlns:sodipodi="http://sodipodi.sourceforge.net/DTD/sodipodi-0.dtd"
   xmlns:inkscape="http://www.inkscape.org/namespaces/inkscape"
   width="275"
   height="114"
   id="svg3874"
   version="1.1"
   inkscape:version="0.92.1 r15371"
   sodipodi:docname="Example.svg">
  <defs
     id="defs3876">
    <filter
       inkscape:collect="always"
       style="color-interpolation-filters:sRGB"
       id="filter4728"
       x="-0.15"
       width="1.3"
       y="-0.15"
       height="1.3">
      <feGaussianBlur
         inkscape:collect="always"
         stdDeviation="3.4"
         id="feGaussianBlur4730" />
    </filter>
  </defs>
  <sodipodi:namedview
     id="base"
     pagecolor="#ffffff"
     bordercolor="#666666"
     borderopacity="1.0"
     inkscape:pageopacity="0.0"
     inkscape:pageshadow="2"
     inkscape:zoom="1"
     inkscape:cx="87"
     inkscape:cy="57.699"
     inkscape:document-units="px"
     inkscape:current-layer="layer1"
     showgrid="false"
     inkscape:window-width="3747"
     inkscape:window-height="2125"
     inkscape:window-x="81"
     inkscape:window-y="0"
     inkscape:window-maximized="1"
     fit-margin-top="0"
     fit-margin-left="0"
     fit-margin-right="0"
     fit-margin-bottom="0"
     inkscape:snap-global="false" />
  <metadata
     id="metadata3879">
    <rdf:RDF>
      <cc:Work
         rdf:about="">
        <dc:format>image/svg+xml</dc:format>
        <dc:type
           rdf:resource="http://purl.org/dc/dcmitype/StillImage" />
        <dc:title />
      </cc:Work>
    </rdf:RDF>
  </metadata>
  <g
     inkscape:label="Layer 1"
     inkscape:groupmode="layer"
     id="layer1">
    <path
       style="fill:#000000;filter:url(#filter4728);opacity:0.3"
       d="M 11,9 C 9.892,9 9,9.892 9,11 v 76 c 0,1.108 0.892,2 2,2 h 52 c 1.108,0 2,-0.892 2,-2 V 21 L 53,9 Z"
       id="path4668"
       inkscape:connector-curvature="0"
       sodipodi:nodetypes="ssssssccs" />
    <path
       sodipodi:nodetypes="ssssssccs"
       inkscape:connector-curvature="0"
       id="path4670"
       d="M 11,9 C 9.892,9 9,9.892 9,11 v 76 c 0,1.108 0.892,2 2,2 h 52 c 1.108,0 2,-0.892 2,-2 V 21 L 53,9 Z"
       style="fill:#ffffff;stroke:#999999;stroke-dasharray:none;stroke-miterlimit:4;stroke-width:2" />
    <path
       sodipodi:nodetypes="cssc"
       inkscape:connector-curvature="0"
       id="path4672"
       d="m 53,9 v 10 c 0,1.108 0.91352,2.217297 2,2 h 10"
       style="fill:none;stroke:#999999;stroke-dasharray:none;stroke-miterlimit:4;stroke-width:1" />
    <rect
       style="fill:#9549db"
       id="rect4676"
       width="30"
       height="3"
       x="17"
       y="36" />
    <rect
       y="56"
       x="17"
       height="3"
       width="30"
       id="rect4682"
       style="fill:#9549db" />
    <rect
       style="fill:#9549db"
       id="rect4684"
       width="30"
       height="3"
       x="17"
       y="60" />
    <rect
       y="78"
       x="17"
       height="3"
       width="30"
       id="rect4686"
       style="fill:#9549db" />
    <rect
       style="fill:#9549db"
       id="rect4688"
       width="20"
       height="3"
       x="17"
       y="16" />
    <rect
       y="20"
       x="17"
       height="3"
       width="20"
       id="rect4690"
       style="fill:#9549db" />
    <rect
       y="64"
       x="17"
       height="3"
       width="30"
       id="rect4692"
       style="fill:#9549db" />
    <path
       sodipodi:nodetypes="ssssssccs"
       inkscape:connector-curvature="0"
       id="path845"
       d="m 111,9 c -1.108,0 -2,0.892 -2,2 v 76 c 0,1.108 0.892,2 2,2 h 52 c 1.108,0 2,-0.892 2,-2 V 21 L 153,9 Z"
       style="fill:#000000;filter:url(#filter4728);opacity:0.3" />
    <path
       style="fill:#ffffff;stroke:#999999;stroke-dasharray:none;stroke-miterlimit:4;stroke-width:2"
       d="m 111,9 c -1.108,0 -2,0.892 -2,2 v 76 c 0,1.108 0.892,2 2,2 h 52 c 1.108,0 2,-0.892 2,-2 V 21 L 153,9 Z"
       id="path847"
       inkscape:connector-curvature="0"
       sodipodi:nodetypes="ssssssccs" />
    <path
       style="fill:none;stroke:#999999;stroke-dasharray:none;stroke-miterlimit:4;stroke-width:1"
       d="m 153,9 v 10 c 0,1.108 0.91352,2.217297 2,2 h 10"
       id="path849"
       inkscape:connector-curvature="0"
       sodipodi:nodetypes="cssc" />
    <rect
       y="36"
       x="117"
       height="3"
       width="30"
       id="rect851"
       style="fill:#9549db" />
    <rect
       style="fill:#6bc55f"
       id="rect853"
       width="30"
       height="3"
       x="127"
       y="44" />
    <rect
       y="48"
       x="127"
       height="3"
       width="30"
       id="rect855"
       style="fill:#6bc55f" />
    <rect
       style="fill:#9549db"
       id="rect857"
       width="30"
       height="3"
       x="117"
       y="56" />
    <rect
       y="60"
       x="117"
       height="3"
       width="30"
       id="rect859"
       style="fill:#9549db" />
    <rect
       style="fill:#9549db"
       id="rect861"
       width="30"
       height="3"
       x="117"
       y="78" />
    <rect
       y="16"
       x="117"
       height="3"
       width="20"
       id="rect863"
       style="fill:#9549db" />
    <rect
       style="fill:#9549db"
       id="rect865"
       width="20"
       height="3"
       x="117"
       y="20" />
    <rect
       style="fill:#9549db"
       id="rect867"
       width="30"
       height="3"
       x="117"
       y="64" />
    <rect
       style="fill:#6bc55f"
       id="rect869"
       width="30"
       height="3"
       x="127"
       y="48" />
    <rect
       style="fill:#9549db"
       id="rect871"
       width="30"
       height="3"
       x="17"
       y="52" />
    <rect
       y="48"
       x="17"
       height="3"
       width="30"
       id="rect873"
       style="fill:#9549db" />
    <rect
       style="fill:#9549db"
       id="rect875"
       width="30"
       height="3"
       x="17"
       y="44" />
    <text
       xml:space="preserve"
       style="-inkscape-font-specification:'Source Sans Pro';fill:#000000;font-family:'Source Sans Pro';font-size:18px;text-align:center;text-anchor:middle"
       x="35"
       y="108"
       id="text905"><tspan
         sodipodi:role="line"
         id="tspan903"
         x="35"
         y="108">May 6</tspan></text>
    <text
       id="text909"
       y="108"
       x="135"
       style="-inkscape-font-specification:'Source Sans Pro';fill:#000000;font-family:'Source Sans Pro';font-size:18px;text-align:center;text-anchor:middle"
       xml:space="preserve"><tspan
         y="108"
         x="135"
         id="tspan907"
         sodipodi:role="line"
         >May 17</tspan></text>
    <path
       style="fill:#000000;filter:url(#filter4728);opacity:0.3"
       d="m 211,9 c -1.108,0 -2,0.892 -2,2 v 76 c 0,1.108 0.892,2 2,2 h 52 c 1.108,0 2,-0.892 2,-2 V 21 L 253,9 Z"
       id="path1818"
       inkscape:connector-curvature="0"
       sodipodi:nodetypes="ssssssccs" />
    <path
       sodipodi:nodetypes="ssssssccs"
       inkscape:connector-curvature="0"
       id="path1820"
       d="m 211,9 c -1.108,0 -2,0.892 -2,2 v 76 c 0,1.108 0.892,2 2,2 h 52 c 1.108,0 2,-0.892 2,-2 V 21 L 253,9 Z"
       style="fill:#ffffff;stroke:#999999;stroke-dasharray:none;stroke-miterlimit:4;stroke-width:2" />
    <path
       sodipodi:nodetypes="cssc"
       inkscape:connector-curvature="0"
       id="path1822"
       d="m 253,9 v 10 c 0,1.108 0.91352,2.217297 2,2 h 10"
       style="fill:none;stroke:#999999;stroke-dasharray:none;stroke-miterlimit:4;stroke-width:1" />
    <rect
       style="fill:#9549db"
       id="rect1824"
       width="30"
       height="3"
       x="217"
       y="36" />
    <rect
       y="44"
       x="227"
       height="3"
       width="30"
       id="rect1826"
       style="fill:#6bc55f" />
    <rect
       style="fill:#6bc55f"
       id="rect1828"
       width="30"
       height="3"
       x="227"
       y="48" />
    <rect
       y="56"
       x="217"
       height="3"
       width="30"
       id="rect1830"
       style="fill:#9549db" />
    <rect
       style="fill:#6bc55f"
       id="rect1832"
       width="30"
       height="3"
       x="227"
       y="60" />
    <rect
       y="78"
       x="217"
       height="3"
       width="30"
       id="rect1834"
       style="fill:#9549db" />
    <rect
       style="fill:#9549db"
       id="rect1836"
       width="20"
       height="3"
       x="217"
       y="16" />
    <rect
       y="20"
       x="217"
       height="3"
       width="20"
       id="rect1838"
       style="fill:#9549db" />
    <rect
       y="64"
       x="217"
       height="3"
       width="30"
       id="rect1840"
       style="fill:#9549db" />
    <rect
       y="48"
       x="227"
       height="3"
       width="30"
       id="rect1842"
       style="fill:#6bc55f" />
    <text
       xml:space="preserve"
       style="-inkscape-font-specification:'Source Sans Pro';fill:#000000;font-family:'Source Sans Pro';font-size:18px;text-align:center;text-anchor:middle"
       x="235"
       y="108"
       id="text1846"><tspan
         sodipodi:role="line"
         id="tspan1844"
         x="235"
         y="108">May 19</tspan></text>
    <rect
       style="fill:#9549db"
       id="rect1848"
       width="30"
       height="3"
       x="217"
       y="52" />
    <rect
       y="40"
       x="217"
       height="3"
       width="30"
       id="rect1850"
       style="fill:#9549db" />
    <rect
       style="fill:#9549db"
       id="rect1852"
       width="30"
       height="3"
       x="117"
       y="40" />
    <rect
       y="52"
       x="117"
       height="3"
       width="30"
       id="rect1854"
       style="fill:#9549db" />
    <g
       id="g1880"
       transform="translate(-237.74401,-83.34017)">
      <path
         sodipodi:nodetypes="cc"
         inkscape:connector-curvature="0"
         id="path1876"
         d="m 243.24401,168.84017 63,-63.00001"
         style="fill:none;fill-rule:evenodd;stroke:#ff0000;stroke-dasharray:none;stroke-linecap:butt;stroke-miterlimit:4;stroke-width:6" />
      <path
         sodipodi:nodetypes="cc"
         style="fill:none;fill-rule:evenodd;stroke:#ff0000;stroke-dasharray:none;stroke-linecap:butt;stroke-miterlimit:4;stroke-width:6"
         d="m 306.24401,168.84017 -63,-63.00001"
         id="path1878"
         inkscape:connector-curvature="0" />
    </g>
    <g
       transform="translate(-137.74401,-83.34017)"
       id="g1886">
      <path
         style="fill:none;fill-rule:evenodd;stroke:#ff0000;stroke-dasharray:none;stroke-linecap:butt;stroke-miterlimit:4;stroke-width:6"
         d="m 243.24401,168.84017 63,-63.00001"
         id="path1882"
         inkscape:connector-curvature="0"
         sodipodi:nodetypes="cc" />
      <path
         inkscape:connector-curvature="0"
         id="path1884"
         d="m 306.24401,168.84017 -63,-63.00001"
         style="fill:none;fill-rule:evenodd;stroke:#ff0000;stroke-dasharray:none;stroke-linecap:butt;stroke-miterlimit:4;stroke-width:6"
         sodipodi:nodetypes="cc" />
    </g>
  </g>
</svg>
