<?xml version="1.0" encoding="UTF-8" standalone="no"?>
<!-- Created with Inkscape (http://www.inkscape.org/) -->
<svg
   xmlns:dc="http://purl.org/dc/elements/1.1/"
   xmlns:cc="http://creativecommons.org/ns#"
   xmlns:rdf="http://www.w3.org/1999/02/22-rdf-syntax-ns#"
   xmlns:svg="http://www.w3.org/2000/svg"
   xmlns="http://www.w3.org/2000/svg"
   xmlns:sodipodi="http://sodipodi.sourceforge.net/DTD/sodipodi-0.dtd"
   xmlns:inkscape="http://www.inkscape.org/namespaces/inkscape"
   width="410"
   height="100"
   id="svg3874"
   version="1.1"
   inkscape:version="0.92.3 (2405546, 2018-03-11)"
   sodipodi:docname="ChangeDetection.svg">
  <defs      id="defs3876" ></defs>
  <sodipodi:namedview
     id="base"
     pagecolor="#ffffff"
     bordercolor="#666666"
     borderopacity="1.0"
     inkscape:pageopacity="0.0"
     inkscape:pageshadow="2"
     inkscape:zoom="8.0243902"
     inkscape:cx="177.20973"
     inkscape:cy="50"
     inkscape:document-units="px"
     inkscape:current-layer="layer1"
     showgrid="false"
     inkscape:window-width="3747"
     inkscape:window-height="2125"
     inkscape:window-x="81"
     inkscape:window-y="0"
     inkscape:window-maximized="1"
     fit-margin-top="0"
     fit-margin-left="0"
     fit-margin-right="0"
     fit-margin-bottom="0" />
  <metadata
     id="metadata3879">
    <rdf:RDF>
      <cc:Work
         rdf:about="">
        <dc:format>image/svg+xml</dc:format>
        <dc:type
           rdf:resource="http://purl.org/dc/dcmitype/StillImage" />
        <dc:title />
      </cc:Work>
    </rdf:RDF>
  </metadata>
  <g
     inkscape:label="Layer 1"
     inkscape:groupmode="layer"
     id="layer1">
    <path
       id="path4295"
       style="fill:none;stroke:#999999;stroke-linecap:butt;stroke-miterlimit:4;stroke-width:1"
       d="m 194.5,69.5 0,-40 -160,0 0,40"
       inkscape:connector-curvature="0"
       sodipodi:nodetypes="cccc" />
    <path
       sodipodi:nodetypes="cc"
       inkscape:connector-curvature="0"
       id="path4299"
       d="m 114.5,9.5 0,60"
       style="fill:none;stroke:#999999;stroke-linecap:butt;stroke-miterlimit:4;stroke-width:1" />
    <path
       id="path4279"
       style="fill:none;stroke:#999999;stroke-linecap:butt;stroke-miterlimit:4;stroke-width:1"
       d="m 134.5,89.5 0,-20 -40,0 0,20"
       inkscape:connector-curvature="0"
       sodipodi:nodetypes="cccc" />
    <path
       sodipodi:nodetypes="cccc"
       inkscape:connector-curvature="0"
       d="m 214.5,89.5 0,-20 -40,0 0,20"
       style="fill:none;stroke:#999999;stroke-linecap:butt;stroke-miterlimit:4;stroke-width:1"
       id="path4281" />
    <path
       sodipodi:nodetypes="cccc"
       inkscape:connector-curvature="0"
       d="m 54.5,89.5 0,-20 -40,0 0,20"
       style="fill:none;stroke:#999999;stroke-linecap:butt;stroke-miterlimit:4;stroke-width:1"
       id="path4273" />
    <g
       id="g4287">
      <rect
         rx="2"
         y="80"
         x="0"
         height="20"
         width="30"
         id="rect4208"
         style="fill:#6bc55f" />
      <rect
         style="fill:#6bc55f"
         id="rect4263"
         width="30"
         height="20"
         x="40"
         y="80"
         rx="2" />
    </g>
    <rect
       style="fill:#6bc55f"
       id="rect4265"
       width="30"
       height="20"
       x="80"
       y="80"
       rx="2" />
    <rect
       rx="2"
       y="80"
       x="120"
       height="20"
       width="30"
       id="rect4267"
       style="fill:#6bc55f" />
    <rect
       style="fill:#39812f"
       id="rect4269"
       width="30"
       height="20"
       x="160"
       y="80"
       rx="2" />
    <rect
       rx="2"
       y="80"
       x="200"
       height="20"
       width="30"
       id="rect4271"
       style="fill:#6bc55f" />
    <rect
       rx="2"
       y="40"
       x="20"
       height="20"
       width="30"
       id="rect4285"
       style="fill:#6bc55f" />
    <rect
       style="fill:#6bc55f"
       id="rect4291"
       width="30"
       height="20"
       x="100"
       y="40"
       rx="2" />
    <rect
       rx="2"
       y="40"
       x="180"
       height="20"
       width="30"
       id="rect4293"
       style="fill:#39812f" />
    <rect
       rx="2"
       y="0"
       x="100"
       height="20"
       width="30"
       id="rect4297"
       style="fill:#39812f" />
    <rect
       rx="2"
       y="40"
       x="380"
       height="20"
       width="30"
       id="rect4375"
       style="fill:#39812f" />
    <rect
       style="fill:#39812f"
       id="rect4377"
       width="30"
       height="20"
       x="340"
       y="40"
       rx="2" />
    <rect
       style="fill:#39812f"
       id="rect4379"
       width="30"
       height="20"
       x="300"
       y="40"
       rx="2" />
    <path
       style="fill:none;stroke:#000000;stroke-width:2"
       d="m 240,50 44,0"
       id="path4381"
       inkscape:connector-curvature="0"
       sodipodi:nodetypes="cc" />
    <path
       id="path3988"
       d="m 280.99999,53 8,-3 -8,-3 L 282,50 Z"
       style="fill:#000000"
       inkscape:connector-curvature="0"
       sodipodi:nodetypes="ccccc" />
    <path
       sodipodi:type="star"
       style="fill:#ffffff"
       id="path4158"
       sodipodi:sides="5"
       sodipodi:cx="115"
       sodipodi:cy="10.660423"
       sodipodi:r1="4.9135394"
       sodipodi:r2="2.1128218"
       sodipodi:arg1="-1.5707963"
       sodipodi:arg2="-0.9424778"
       inkscape:flatsided="false"
       inkscape:rounded="0"
       inkscape:randomized="0"
       d="m 115,5.7468841 1.24189,3.2042306 3.43116,0.1909417 -2.66364,2.1712646 0.8787,3.322239 L 115,12.773245 l -2.88811,1.862315 0.8787,-3.322239 -2.66364,-2.1712648 3.43116,-0.1909415 z"
       inkscape:transform-center-y="-0.46920126" />
    <path
       inkscape:transform-center-y="-0.46920126"
       d="m 195,45.746884 1.24189,3.204231 3.43116,0.190941 -2.66364,2.171265 0.8787,3.322239 L 195,52.773245 l -2.88811,1.862315 0.8787,-3.322239 -2.66364,-2.171265 3.43116,-0.190941 z"
       inkscape:randomized="0"
       inkscape:rounded="0"
       inkscape:flatsided="false"
       sodipodi:arg2="-0.9424778"
       sodipodi:arg1="-1.5707963"
       sodipodi:r2="2.1128218"
       sodipodi:r1="4.9135394"
       sodipodi:cy="50.660423"
       sodipodi:cx="195"
       sodipodi:sides="5"
       id="path4170"
       style="fill:#ffffff"
       sodipodi:type="star" />
    <path
       sodipodi:type="star"
       style="fill:#ffffff"
       id="path4172"
       sodipodi:sides="5"
       sodipodi:cx="175"
       sodipodi:cy="90.660423"
       sodipodi:r1="4.9135394"
       sodipodi:r2="2.1128218"
       sodipodi:arg1="-1.5707963"
       sodipodi:arg2="-0.9424778"
       inkscape:flatsided="false"
       inkscape:rounded="0"
       inkscape:randomized="0"
       d="m 175,85.746884 1.24189,3.204231 3.43116,0.190941 -2.66364,2.171265 0.8787,3.322239 L 175,92.773245 l -2.88811,1.862315 0.8787,-3.322239 -2.66364,-2.171265 3.43116,-0.190941 z"
       inkscape:transform-center-y="-0.46920126" />
    <path
       inkscape:transform-center-y="-0.46920126"
       d="m 315,45.746884 1.24189,3.204231 3.43116,0.190941 -2.66364,2.171265 0.8787,3.322239 L 315,52.773245 l -2.88811,1.862315 0.8787,-3.322239 -2.66364,-2.171265 3.43116,-0.190941 z"
       inkscape:randomized="0"
       inkscape:rounded="0"
       inkscape:flatsided="false"
       sodipodi:arg2="-0.9424778"
       sodipodi:arg1="-1.5707963"
       sodipodi:r2="2.1128218"
       sodipodi:r1="4.9135394"
       sodipodi:cy="50.660423"
       sodipodi:cx="315"
       sodipodi:sides="5"
       id="path4174"
       style="fill:#ffffff"
       sodipodi:type="star" />
    <path
       sodipodi:type="star"
       style="fill:#ffffff"
       id="path4176"
       sodipodi:sides="5"
       sodipodi:cx="355"
       sodipodi:cy="50.660423"
       sodipodi:r1="4.9135394"
       sodipodi:r2="2.1128218"
       sodipodi:arg1="-1.5707963"
       sodipodi:arg2="-0.9424778"
       inkscape:flatsided="false"
       inkscape:rounded="0"
       inkscape:randomized="0"
       d="m 355,45.746884 1.24189,3.204231 3.43116,0.190941 -2.66364,2.171265 0.8787,3.322239 L 355,52.773245 l -2.88811,1.862315 0.8787,-3.322239 -2.66364,-2.171265 3.43116,-0.190941 z"
       inkscape:transform-center-y="-0.46920126" />
    <path
       inkscape:transform-center-y="-0.46920126"
       d="m 395,45.746884 1.24189,3.204231 3.43116,0.190941 -2.66364,2.171265 0.8787,3.322239 L 395,52.773245 l -2.88811,1.862315 0.8787,-3.322239 -2.66364,-2.171265 3.43116,-0.190941 z"
       inkscape:randomized="0"
       inkscape:rounded="0"
       inkscape:flatsided="false"
       sodipodi:arg2="-0.9424778"
       sodipodi:arg1="-1.5707963"
       sodipodi:r2="2.1128218"
       sodipodi:r1="4.9135394"
       sodipodi:cy="50.660423"
       sodipodi:cx="395"
       sodipodi:sides="5"
       id="path4178"
       style="fill:#ffffff"
       sodipodi:type="star" />
  </g>
</svg>
