<?xml version="1.0" encoding="UTF-8" standalone="no"?>
<!-- Created with Inkscape (http://www.inkscape.org/) -->
<svg
   xmlns:dc="http://purl.org/dc/elements/1.1/"
   xmlns:cc="http://creativecommons.org/ns#"
   xmlns:rdf="http://www.w3.org/1999/02/22-rdf-syntax-ns#"
   xmlns:svg="http://www.w3.org/2000/svg"
   xmlns="http://www.w3.org/2000/svg"
   xmlns:sodipodi="http://sodipodi.sourceforge.net/DTD/sodipodi-0.dtd"
   xmlns:inkscape="http://www.inkscape.org/namespaces/inkscape"
   width="350"
   height="100"
   id="svg3874"
   version="1.1"
   inkscape:version="0.91 r13725"
   sodipodi:docname="DataSystem.svg">
  <defs
     id="defs3876">
    <filter
       inkscape:collect="always"
       style="color-interpolation-filters:sRGB"
       id="filter4728"
       x="0"
       width="1.3"
       y="0"
       height="1.3">
      <feGaussianBlur
         inkscape:collect="always"
         stdDeviation="3.4"
         id="feGaussianBlur4730" />
    </filter>
  </defs>
  <sodipodi:namedview
     id="base"
     pagecolor="#ffffff"
     bordercolor="#666666"
     borderopacity="1.0"
     inkscape:pageopacity="0.0"
     inkscape:pageshadow="2"
     inkscape:zoom="1"
     inkscape:cx="82.16952"
     inkscape:cy="-69.5"
     inkscape:document-units="px"
     inkscape:current-layer="svg3874"
     showgrid="false"
     inkscape:window-width="3759"
     inkscape:window-height="2131"
     inkscape:window-x="81"
     inkscape:window-y="0"
     inkscape:window-maximized="1"
     fit-margin-top="0"
     fit-margin-left="0"
     fit-margin-right="0"
     fit-margin-bottom="0" />
  <metadata
     id="metadata3879">
    <rdf:RDF>
      <cc:Work
         rdf:about="">
        <dc:format>image/svg+xml</dc:format>
        <dc:type
           rdf:resource="http://purl.org/dc/dcmitype/StillImage" />
        <dc:title />
      </cc:Work>
    </rdf:RDF>
  </metadata>
  <g
     inkscape:label="Layer 1"
     inkscape:groupmode="layer"
     id="layer1">
    <rect
       style="fill:#9549db"
       id="rect4950"
       width="70"
       height="44"
       x="0"
       y="48"
       rx="4" />
    <rect
       rx="2"
       y="94"
       x="0"
       height="4"
       width="70"
       id="rect4952"
       style="fill:#5a1d93" />
    <rect
       rx="2"
       y="50"
       x="2"
       height="40"
       width="66"
       id="rect4954"
       style="fill:#ffffff" />
    <rect
       style="fill:#9549db"
       id="rect4956"
       width="64"
       height="38"
       x="3"
       y="51"
       rx="1" />
    <text
       sodipodi:linespacing="125%"
       id="text3082"
       y="74"
       x="35"
       style="-inkscape-font-specification:'Source Sans Pro';fill:#ffffff;font-family:'Source Sans Pro';font-size:15px;text-align:center;text-anchor:middle"
       xml:space="preserve"><tspan
         y="74"
         x="35"
         id="tspan3084"
         sodipodi:role="line">laptop</tspan></text>
    <rect
       rx="4"
       y="3"
       x="49"
       height="34"
       width="20"
       id="rect3041"
       style="fill:#9549db" />
    <path
       sodipodi:nodetypes="cc"
       inkscape:connector-curvature="0"
       id="path4820"
       d="m 154.5,39.5 -71,-20"
       style="fill:none;stroke:#999999;stroke-dasharray:3, 3;stroke-linecap:butt;stroke-miterlimit:4;stroke-width:1" />
    <path
       style="fill:none;stroke:#999999;stroke-dasharray:3, 3;stroke-linecap:butt;stroke-miterlimit:4;stroke-width:1"
       d="m 154.5,55.5 -71,20"
       id="path4822"
       inkscape:connector-curvature="0"
       sodipodi:nodetypes="cc" />
    <path
       style="fill:none;stroke:#999999;stroke-dasharray:3, 3;stroke-linecap:butt;stroke-miterlimit:4;stroke-width:1"
       d="m 308.5,48.5 -71,0"
       id="path4851"
       inkscape:connector-curvature="0"
       sodipodi:nodetypes="cc" />
    <rect
       style="fill:#ffffff"
       id="rect4888"
       width="16"
       height="1"
       x="51"
       y="7" />
    <rect
       y="32"
       x="51"
       height="1"
       width="16"
       id="rect4890"
       style="fill:#ffffff" />
    <rect
       style="fill:#6bc55f"
       id="rect3060"
       width="30"
       height="46"
       x="320"
       y="26"
       rx="4" />
    <circle
       style="fill:#ffffff"
       id="path4900"
       cx="335"
       cy="66"
       r="2" />
    <path
       style="fill:#000000;filter:url(#filter4728);opacity:0.3"
       d="m 171,9 c -1.108,0 -2,0.892 -2,2 l 0,76 c 0,1.108 0.892,2 2,2 l 52,0 c 1.108,0 2,-0.892 2,-2 L 225,21 213,9 Z"
       id="path4668"
       inkscape:connector-curvature="0"
       sodipodi:nodetypes="ssssssccs" />
    <path
       sodipodi:nodetypes="ssssssccs"
       inkscape:connector-curvature="0"
       id="path4670"
       d="m 171,9 c -1.108,0 -2,0.892 -2,2 l 0,76 c 0,1.108 0.892,2 2,2 l 52,0 c 1.108,0 2,-0.892 2,-2 L 225,21 213,9 Z"
       style="fill:#ffffff;stroke:#999999;stroke-miterlimit:4;stroke-width:2" />
    <path
       sodipodi:nodetypes="cssc"
       inkscape:connector-curvature="0"
       id="path4672"
       d="m 213,9 0,10 c 0,1.108 0.91352,2.217297 2,2 l 10,0"
       style="fill:none;stroke:#999999;stroke-miterlimit:4;stroke-width:1" />
    <rect
       style="fill:#9549db"
       id="rect4676"
       width="30"
       height="3"
       x="177"
       y="36" />
    <rect
       y="44"
       x="187"
       height="3"
       width="30"
       id="rect4678"
       style="fill:#6bc55f" />
    <rect
       style="fill:#6bc55f"
       id="rect4680"
       width="30"
       height="3"
       x="187"
       y="48" />
    <rect
       y="56"
       x="177"
       height="3"
       width="30"
       id="rect4682"
       style="fill:#9549db" />
    <rect
       style="fill:#9549db"
       id="rect4684"
       width="30"
       height="3"
       x="177"
       y="60" />
    <rect
       y="78"
       x="177"
       height="3"
       width="30"
       id="rect4686"
       style="fill:#9549db" />
    <rect
       style="fill:#9549db"
       id="rect4688"
       width="20"
       height="3"
       x="177"
       y="16" />
    <rect
       y="20"
       x="177"
       height="3"
       width="20"
       id="rect4690"
       style="fill:#9549db" />
    <rect
       y="64"
       x="177"
       height="3"
       width="30"
       id="rect4692"
       style="fill:#9549db" />
    <rect
       y="48"
       x="187"
       height="3"
       width="30"
       id="rect4702"
       style="fill:#6bc55f" />
  </g>
</svg>
