<?xml version="1.0" encoding="UTF-8" standalone="no"?>
<!-- Created with Inkscape (http://www.inkscape.org/) -->
<svg
   xmlns:dc="http://purl.org/dc/elements/1.1/"
   xmlns:cc="http://creativecommons.org/ns#"
   xmlns:rdf="http://www.w3.org/1999/02/22-rdf-syntax-ns#"
   xmlns:svg="http://www.w3.org/2000/svg"
   xmlns="http://www.w3.org/2000/svg"
   xmlns:sodipodi="http://sodipodi.sourceforge.net/DTD/sodipodi-0.dtd"
   xmlns:inkscape="http://www.inkscape.org/namespaces/inkscape"
   width="330"
   height="50"
   id="svg3874"
   version="1.1"
   inkscape:version="0.92.3 (2405546, 2018-03-11)"
   sodipodi:docname="Encryption.svg">
  <defs      id="defs3876" ></defs>
  <sodipodi:namedview
     id="base"
     pagecolor="#ffffff"
     bordercolor="#666666"
     borderopacity="1.0"
     inkscape:pageopacity="0.0"
     inkscape:pageshadow="2"
     inkscape:zoom="2.8284271"
     inkscape:cx="-88"
     inkscape:cy="103.67678"
     inkscape:document-units="px"
     inkscape:current-layer="layer1"
     showgrid="false"
     inkscape:window-width="3747"
     inkscape:window-height="2125"
     inkscape:window-x="81"
     inkscape:window-y="0"
     inkscape:window-maximized="1"
     fit-margin-top="0"
     fit-margin-left="0"
     fit-margin-right="0"
     fit-margin-bottom="0" />
  <metadata
     id="metadata3879">
    <rdf:RDF>
      <cc:Work
         rdf:about="">
        <dc:format>image/svg+xml</dc:format>
        <dc:type
           rdf:resource="http://purl.org/dc/dcmitype/StillImage" />
        <dc:title />
      </cc:Work>
    </rdf:RDF>
  </metadata>
  <g
     inkscape:label="Layer 1"
     inkscape:groupmode="layer"
     id="layer1">
    <rect
       style="fill:#9549db"
       id="rect4950"
       width="70"
       height="44"
       x="0"
       y="0"
       rx="4" />
    <rect
       rx="2"
       y="46"
       x="0"
       height="4"
       width="70"
       id="rect4952"
       style="fill:#5a1d93" />
    <rect
       rx="2"
       y="2"
       x="2"
       height="40"
       width="66"
       id="rect4954"
       style="fill:#ffffff" />
    <rect
       style="fill:#9549db"
       id="rect4956"
       width="64"
       height="38"
       x="3"
       y="3"
       rx="1" />
    <path
       sodipodi:nodetypes="cc"
       inkscape:connector-curvature="0"
       id="path4837"
       d="m 288.5,22.5 -199,0"
       style="fill:none;stroke:#e5473f;stroke-dasharray:6, 6;stroke-linecap:butt;stroke-miterlimit:4;stroke-width:3" />
    <g
       id="g4566"
       transform="translate(91,-186)">
      <rect
         style="fill:#9549db"
         id="rect3041"
         width="20"
         height="34"
         x="219"
         y="191"
         rx="4" />
      <rect
         y="195"
         x="221"
         height="1"
         width="16"
         id="rect4888"
         style="fill:#ffffff" />
      <rect
         style="fill:#ffffff"
         id="rect4890"
         width="16"
         height="1"
         x="221"
         y="220" />
    </g>
    <path
       style="fill:#ffffff;stroke:#333333;stroke-linecap:butt;stroke-miterlimit:4;stroke-width:2"
       d="m 192.49493,11.727675 c -5.25084,-8.671755 -18.10936,-6.640125 -18.1134,4.412238 -9.80707,0.604074 -9.20268,15.871249 1.01821,15.005186 1.72842,8.927261 11.53798,7.788278 14.45142,2.429411 4.12175,4.124296 10.4641,3.586036 12.02201,-3.483347 9.04348,1.927764 13.17691,-12.501802 2.03642,-13.826206 -0.81813,-6.642274 -7.9733,-7.648613 -11.41466,-4.537282 z"
       id="path4236"
       inkscape:connector-curvature="0"
       sodipodi:nodetypes="ccccccc" />
    <circle
       r="13"
       cy="22.5"
       cx="290"
       id="circle4248"
       style="fill:#ffffff;stroke:#e5473f;stroke-linecap:butt;stroke-miterlimit:4;stroke-width:1" />
    <rect
       y="21"
       x="284"
       height="8"
       width="12"
       id="rect4250"
       style="fill:#333333" />
    <path
       sodipodi:nodetypes="czc"
       inkscape:connector-curvature="0"
       id="path4252"
       d="m 287,20 c 0,-2.985677 0.51308,-4 3,-4 2.48692,0 3,1.0011 3,4"
       style="fill:none;stroke:#333333;stroke-linecap:butt;stroke-miterlimit:4;stroke-width:2" />
    <circle
       style="fill:#ffffff;stroke:#e5473f;stroke-linecap:butt;stroke-miterlimit:4;stroke-width:1"
       id="circle4262"
       cx="90"
       cy="22.5"
       r="13" />
    <rect
       style="fill:#333333"
       id="rect4264"
       width="12"
       height="8"
       x="84"
       y="21" />
    <path
       style="fill:none;stroke:#333333;stroke-linecap:butt;stroke-miterlimit:4;stroke-width:2"
       d="m 87,20 c 0,-2.985677 0.51308,-4 3,-4 2.48692,0 3,1.0011 3,4"
       id="path4266"
       inkscape:connector-curvature="0"
       sodipodi:nodetypes="czc" />
  </g>
</svg>
